<svg version="1.2" xmlns="http://www.w3.org/2000/svg" viewBox="0 0 431 195" width="431" height="195">
	<title>Logo_draft-svg</title>
	<style>
		.s0 { fill: none;stroke: #f5f5f5;stroke-width: .5 } 
		.s1 { fill: #ffffff } 
		.s2 { fill: #ffd700 } 
	</style>
	<g>
		<path fill-rule="evenodd" class="s0" d="m-14-8h461v213h-461zm96.5 154c0.5-0.3 0.3-0.5-1-0.5-1.3 0-1.5 0.2-1 0.5 0.4 0.3 0.8 0.5 1 0.5 0.2 0 0.6-0.3 1-0.5zm237.4-10.8c-0.2-0.9-0.2-0.3-0.2 1.1 0 1.4 0.1 2 0.2 1.4 0.1-0.7 0.1-1.8 0-2.5zm-237.6-5.2c0.8-0.3 0.5-0.4-1-0.4-1.5-0.1-1.8 0.1-1.3 0.4 0.9 0.6 1 0.6 2.3 0zm38.2-50.3c0.6-0.6-0.4-0.5-1.5 0.1l-1.2 0.7 1.2-0.3c0.7-0.2 1.4-0.4 1.5-0.5zm10-5.7c0-0.3-0.4-0.5-0.8-0.6-0.5-0.1-1.3-0.4-1.8-0.6-0.7-0.3-0.9-0.1-0.9 1.4v1.8l1.8-0.9c0.9-0.4 1.7-1 1.7-1.1zm-94 0c0-1.5-0.1-1.5-1.1-1-1.6 0.9-1.6 1-0.6 1.7 1.4 1.1 1.7 1 1.7-0.7zm45.9-24q-0.9-0.6-1.7 0c-0.8 0.4-0.6 0.5 0.8 0.5 1.5 0 1.6-0.1 0.9-0.5z"/>
	</g>
	<g>
		<path class="s1" d="m160.9 161.7c-0.8-0.2-0.9-3.7-0.9-63.7v-63.4l1.2-0.2 1.3-0.2v63.9c0 35.2-0.2 63.9-0.3 63.9-0.3-0.1-0.9-0.2-1.3-0.3z"/>
		<path class="s1" d="m198.2 148c-2.9-0.7-6.2-3.6-7.4-6.6-1.1-2.6-1-9.4 0-11.6 1.1-2.1 3.6-4.7 5.5-5.6 2-1.1 10-1.5 12.4-0.7 2 0.7 4.8 3.2 4.8 4.3 0 1.2-2.2 0.8-2.9-0.5-1.4-2.4-7.1-3.7-10.8-2.3-3.6 1.3-6.8 6.2-6.8 10.5 0 2.4 1.5 6.5 3.1 8.2 3.5 4 11.5 4.4 16.5 0.7 1.1-0.8 1.8-0.2 1.1 1-1 1.7-5.6 3-9.9 3-2.2 0-4.7-0.2-5.6-0.4z"/>
		<path fill-rule="evenodd" class="s1" d="m222.3 147.8c-4.6-2-6.6-7.9-4.3-12.7 1.6-3.2 4.4-4.8 8.2-4.8 3.6 0 5.7 1 7.7 3.6 1.2 1.6 1.4 2.2 1.4 5.4 0 3.1-0.2 3.8-1.4 5.7-0.8 1.2-2.2 2.4-3.1 2.8-2.2 0.9-6.5 0.9-8.6 0zm7.7-1.4c2-1.7 2.9-8.1 1.6-11.5-1.6-4.4-8.4-4.5-10.3-0.1-1 2.4-0.8 7 0.3 9.6 0.7 1.6 1.4 2.1 2.6 2.6 1.9 0.5 4.8 0.2 5.8-0.6z"/>
		<path class="s1" d="m240.5 139.3v-9.3l1.4 0.2q1.4 0.2 1.5 1.2c0.1 1 0.2 1 1.9-0.2 2.1-1.3 4.4-1.6 6.9-0.5 2.8 1.2 3.3 2.8 3.3 10.8v7h-1.5-1.5v-6.9c0-6.3-0.1-7.1-1.1-8.3-0.8-1-1.4-1.3-3.1-1.3-4.1 0.1-4.8 1.6-4.8 10v6.5h-1.5-1.5z"/>
		<path class="s1" d="m262.2 147.6c-0.9-0.6-1.8-1.7-2.1-2.5-0.5-1.5-0.5-1.6 0.7-1.6 0.8 0 1.3 0.4 1.6 1.2 0.6 1.6 3.8 3 5.7 2.6 2.1-0.4 2.9-1.2 2.9-2.7 0-1.9-1.3-3-4.6-3.9-3.2-0.9-5.2-2.4-5.7-4.4-1-4 2.7-7 7.6-6 2.7 0.5 6.2 4.2 4 4.2-0.4 0-1.4-0.6-2.2-1.5-2.7-2.6-7.1-1.6-7.1 1.5 0 1.7 1 2.4 5.5 3.7 4.3 1.2 6.1 3.8 5 7.1-0.8 2.3-2.7 3.2-6.6 3.2-2.2 0-3.6-0.3-4.7-0.9z"/>
		<path class="s1" d="m283.3 147.8c-2.8-1.2-3.1-1.9-3.3-9.3l-0.3-6.8-1.3 0.2c-1.2 0.2-1.4-0.1-1.4-0.9 0-0.9 0.2-1.1 1.4-0.9 1.3 0.1 1.3 0 1.6-2.6 0.1-1.8 0.4-2.8 0.9-2.7 0.3 0.1 0.9 0.1 1.3 0.2 0.6 0 0.8 0.6 0.8 2.5v2.5l2.1 0.1c1.5 0.1 2.1 0.4 2.1 0.9 0 0.6-0.6 0.8-2.1 0.9l-2.1 0.2 0.1 6.9c0.1 8 0.5 8.8 3 7.4 1.4-0.8 1.6-0.8 2.4-0.2 0.6 0.7 0.5 0.9-1.1 1.6-2.2 0.9-2.2 0.9-4.2 0z"/>
		<path class="s1" d="m292.5 139.2v-9.3l1.1 0.3c0.6 0.2 1.3 0.3 1.5 0.3 0.2 0 0.4 0.5 0.4 1.1 0 1 0.1 1 1.6-0.3 0.8-0.7 1.9-1.3 2.5-1.3 1.3 0 2.9 0.9 2.9 1.8 0 1-0.9 1.3-2.1 0.7-1.5-0.8-3.3-0.2-4.2 1.5-0.5 1.1-0.7 3.1-0.7 8v6.5h-1.5-1.5z"/>
		<path class="s1" d="m309.1 148c-2.4-1-2.9-2.7-2.9-10.5v-7.3h1.4l1.3-0.1 0.2 7.2c0.1 7.2 0.1 7.3 1.6 8.5 1.8 1.5 3.8 1.5 5.6 0 1.4-1.2 1.4-1.3 1.7-8.4l0.2-7.2h1.5l1.5 0.1v8.9 9l-1.3 0.2c-1.2 0.1-1.5-0.1-1.7-0.9l-0.3-1-1.4 1c-1.5 1-5.3 1.3-7.4 0.5z"/>
		<path class="s1" d="m331.3 147.8c-5.5-2.4-6.9-10.4-2.7-14.9 3.5-3.8 11.1-3.7 13.4 0l1.1 1.6h-1.1c-0.6 0-1.9-0.6-2.9-1.5-4.5-4-10.3 0.6-9.5 7.5 0.2 1.4 0.8 3.2 1.4 4 1.8 2.5 5.9 3.1 9.6 1.2 1.1-0.6 1.3-0.6 1.6 0.1 0.7 2-7.5 3.5-11 2z"/>
		<path class="s1" d="m351.3 147.8c-2.8-1.2-3.1-1.8-3.2-9.2l-0.2-6.6h-1.4c-1.1 0-1.5-0.3-1.5-1 0-0.8 0.4-1 1.5-1 1.4 0 1.5-0.1 1.6-2.6 0.1-2.5 0.2-2.7 1.6-2.7 1.3 0 1.3 0.1 1.3 2.6v2.7h1.9c2 0 3.6 0.7 3 1.3-0.2 0.2-1.4 0.5-2.5 0.7l-2.2 0.3-0.1 5.6c0 3.1 0.1 6.3 0.3 7.2 0.5 1.9 1.8 2.4 3.1 1.2 0.9-0.8 2.5-0.7 2.5 0.2 0 0.5-2.7 2-3.6 2-0.3-0.1-1.3-0.4-2.2-0.7z"/>
		<path class="s1" d="m361.6 139.4l0.1-9.2 1.4-0.1 1.4-0.2v9.3 9.3h-1.5-1.5z"/>
		<path fill-rule="evenodd" class="s1" d="m375.8 147.8c-4.9-2.1-6.8-9.1-3.7-13.8 3.5-5.1 11.4-5.3 15.2-0.1 1.3 1.6 1.4 2.2 1.4 5.4 0 3.2-0.1 3.8-1.5 5.8-0.9 1.3-2.2 2.3-3.2 2.7-2.3 0.8-6.4 0.8-8.3 0zm6.5-1c2.7-1.1 3.4-3.1 3.2-8.1-0.2-3.7-0.3-4.3-1.5-5.5-1.7-1.6-4.7-2.1-6.8-0.9-2.1 1-3.1 3.3-3.1 6.9 0 6.5 3.4 9.6 8.2 7.6z"/>
		<path class="s1" d="m394.1 139.4l0.1-9.2h1.3c0.9 0 1.3 0.4 1.4 1.1l0.1 1.1 1.8-1.2q3.1-2.1 7-0.5c2.6 1.1 3.2 3 3.2 11v6.8h-1.5-1.5v-7c0-6.8-0.1-7.1-1.3-8.3-1.8-1.9-4.7-1.7-6.4 0.4-1.3 1.5-1.3 1.7-1.3 8.2v6.7h-1.5-1.5z"/>
		<path class="s1" d="m361.5 125.5c-0.4-0.8-0.4-1.3 0.1-1.8 0.8-0.9 2.8-0.9 3.3 0.1 0.8 2-2.3 3.6-3.4 1.7z"/>
		<path fill-rule="evenodd" class="s1" d="m224.4 110.5c-4-1.2-6.4-4.2-6.8-8.2-0.6-6.8 5.2-11.6 11.7-9.8 5.7 1.5 8.3 7.8 5.6 13.4-1.2 2.4-2.8 3.7-5.7 4.5-2.3 0.7-2.9 0.7-4.8 0.1zm4.9-1.8c2.3-0.9 3.2-3.2 3.2-7.5 0-6.3-3.8-9.4-8.6-6.9-2 1-2.8 3.2-2.9 7.2 0 4.1 1 6.3 3.1 7.3 2.1 0.9 3 0.9 5.2 0z"/>
		<path class="s1" d="m244.9 110.5c-3.5-1-3.7-1.6-3.7-10.5v-7.8h1.3 1.2l0.3 7.3c0.2 6.3 0.4 7.5 1.2 8.5 1.7 1.8 6 1 7.1-1.4 0.2-0.4 0.5-3.9 0.6-7.6l0.3-6.7h1.3 1.2l0.2 9.1 0.1 9.1h-1.5c-1.1 0-1.5-0.2-1.5-1 0-1.2-0.2-1.2-1.9 0-1.7 1.3-3.9 1.6-6.2 1z"/>
		<path class="s1" d="m264.8 110.7c-2-0.5-4.3-2.7-4.3-4 0-1.7 1.6-1.6 2.4 0.1 1.2 2.6 6.9 3.4 8.1 1.1 1.4-2.4 0.2-3.9-4.2-5.2-3.9-1.2-5.8-3-5.8-5.5 0-1 0.2-2.2 0.5-2.8 1.2-2.2 6.1-3.2 9-1.7 1.4 0.7 3 2.6 3 3.4 0 0.9-1.8 0.3-2.8-0.9-2.1-2.8-7.2-1.9-7.2 1.3 0 1.7 0.6 2.1 5.1 3.6 4.9 1.6 6.3 3.4 5.4 6.9-0.4 1.4-1 2.2-2.1 2.7-1.6 0.9-5.6 1.4-7.2 1z"/>
		<path fill-rule="evenodd" class="s1" d="m284.3 110.3c-3.1-0.9-4.5-2.4-5.6-5.9-0.8-3-0.8-3.5-0.2-6 1.6-5.9 9.2-8.3 13.7-4.3 1.8 1.5 2.7 3.4 2.9 6.4l0.1 1.6h-6.2c-3.4-0.1-6.6 0.1-6.9 0.4-0.9 0.5-0.4 3 1 4.7 1.1 1.5 4.3 2.5 6.5 2.1 0.8-0.2 2.1-0.9 2.8-1.6 1.2-1 1.5-1.1 2.1-0.5 0.7 0.9-0.9 2.1-4.3 3.1-2.8 0.8-2.7 0.8-6 0zm7.8-11c0-3.2-2.5-5.8-5.5-5.8-2.1 0-3.8 1.5-4.5 4-1.1 3.6-1.1 3.6 4.7 3.5l5.3-0.2z"/>
		<path class="s1" d="m190 110.3c0-0.2 0-5.8-0.1-12.6v-12.4l1.6-0.2 1.5-0.2v5.5 5.6h7.5 7.5v-5.6-5.5l1.6 0.2 1.6 0.2v12.5 12.7h-1.5-1.7v-6.2-6.3h-7.5-7.5v6.3 6.2h-1.5c-0.8 0-1.5-0.1-1.5-0.2z"/>
		<path fill-rule="evenodd" class="s1" d="m225.8 72.3c-4.1-1.8-4.6-7.8-1-10.5 2.1-1.5 5.7-1.7 8-0.3l1.8 1.1-0.2-2.6c-0.4-3.3-1.4-4.5-4.3-4.5-1.8 0-2.4 0.3-3.7 1.6-1.3 1.5-1.5 1.5-2.3 0.8-1-1.1-0.4-1.9 2.1-3.1 1.9-0.9 4.7-1 7.4-0.3 3 0.8 3.6 2.4 3.8 10.9l0.2 7.1h-1.6c-1.1 0-1.5-0.3-1.5-0.8q0-0.9-0.6-0.4c-0.9 0.6-4.5 1.7-5.7 1.7-0.6 0-1.7-0.3-2.5-0.7zm6.3-1.5c2.9-1.5 3.4-5 1-7.3-4.4-4.4-10.2 1.7-6.2 6.5 1.4 1.7 2.9 1.9 5.2 0.8z"/>
		<path fill-rule="evenodd" class="s1" d="m279.3 72.3c-3.1-0.9-4.5-2.5-5.6-6.2-1.5-5 0.6-9.7 5-11.4 4.1-1.5 8.7 0.1 10.5 3.7 0.4 0.7 0.7 2.3 0.8 3.6l0.2 2.2-6.2-0.1c-3.5 0-6.6 0.1-7 0.3-0.6 0.4-0.6 0.8 0.2 2.8 1.8 4.7 6.7 5.7 10.5 2.2 0.8-0.6 1.3-0.7 1.8-0.4 0.6 0.4 0.5 0.6-0.4 1.5-1.1 0.9-5.6 2.5-6.8 2.4-0.3 0-1.6-0.3-3.1-0.6zm5.9-9.6c1.6-0.3 1.9-0.5 1.9-1.5 0-0.7-0.4-1.9-0.8-2.7-2.2-4.3-7.8-3.8-9.2 0.9-0.8 2.9-0.7 3.1 1.9 3.3 1.3 0.1 2.8 0.2 3.3 0.2 0.6 0.1 1.9 0 2.9-0.2z"/>
		<path class="s1" d="m189.9 72.3c-0.1-0.1-0.1-5.8 0-12.5l0.1-12.3h8c7.2 0 8 0.1 7.9 0.9-0.2 0.7-0.9 0.8-6.5 0.7l-6.4-0.1v4.6 4.7l5.5-0.1c5 0 5.5 0.1 5.5 0.9 0 0.8-0.5 0.9-5.5 0.9h-5.5v6.3 6.2h-1.4c-0.8 0-1.6-0.1-1.7-0.2z"/>
		<path class="s1" d="m210 63.5v-9h1.5c1.3 0 1.5 0.2 1.5 1.2v1.2l1.4-1.4c1.6-1.5 3-1.8 4.6-1 1.1 0.6 1.2 1.4 0.5 2.5-0.4 0.6-0.6 0.6-1.5-0.2-0.9-0.8-1.2-0.9-2.6-0.3-0.8 0.3-1.7 1.2-2 1.8-0.2 0.7-0.4 4.2-0.4 7.7v6.5h-1.5-1.5z"/>
		<path class="s1" d="m243.1 63.7l0.2-8.9 1.6-0.2c1.5-0.1 1.6 0 1.4 0.9-0.4 1.4 0 1.3 1.8-0.3 1.4-1.1 1.9-1.2 4.1-1 1.9 0.1 2.7 0.5 3.7 1.6 1 1.2 1.3 1.3 1.8 0.7 1.7-2.3 4.6-3 7.8-1.9 2.5 0.9 3 2.7 3 10.9v7h-1.5-1.5v-6.8c0-8.2-0.6-9.6-3.6-9.7-3.7 0-4.4 1.6-4.4 10v6.5h-1.5-1.5v-6.1c0-6.3-0.5-9.2-1.6-10-1.4-0.8-4-0.4-5.1 0.8-1.4 1.3-1.4 1.5-1.5 10l-0.1 5-1.6 0.2-1.6 0.2z"/>
	</g>
	<g>
		<path class="s1" d="m55.8 135.9c-14-7.1-25.9-12.9-26.4-12.9-1.3 0-1.1-0.8 0.3-1.2 0.6-0.1 1.7-0.5 2.6-0.8 1.5-0.6 2.4-0.2 25 11.2 13 6.5 23.8 11.8 24 11.8 0.3 0 11.5-5.4 25-12l24.3-12 1.9 1c1.8 0.9 2.6 2 1.5 2-0.2 0-11.1 5.3-24.2 11.7-13.1 6.5-24 11.8-24.1 11.8-0.1 0-1.1 0.6-2.2 1.2-1.1 0.7-2.1 1.2-2.1 1.2-0.1 0-11.6-5.8-25.6-13z"/>
		<path class="s1" d="m75 129.7c-2.9-1.6-14.5-7.4-25.7-13l-20.5-10.3 2.4-1 2.4-1.1 23.6 11.9c13 6.4 23.9 11.8 24.2 11.8 0.3 0 4.7-2.1 9.7-4.6 5-2.5 16-7.9 24.3-12l15.2-7.4 1.9 1c1.8 0.9 2.6 2 1.5 2-0.2 0-10.8 5.2-23.6 11.4-25.1 12.5-28.6 14.1-29.6 14.1-0.3 0-2.9-1.2-5.8-2.8z"/>
		<path class="s1" d="m55.8 104c-14-7.2-25.9-13-26.4-13-1.3 0-1.1-0.8 0.3-1.2 0.6-0.1 1.7-0.5 2.6-0.9 1.5-0.6 2-0.3 14.2 5.9 7 3.6 17.8 9.1 23.8 12.1l11.1 5.6 23.9-11.8c13.2-6.5 24.5-11.8 25.2-11.8 1.5 0 5 1.2 5 1.7 0 0.2-0.3 0.4-0.7 0.4-0.7 0-44.1 21.2-50.1 24.4-1.6 0.9-3 1.6-3.2 1.6-0.1 0-11.7-5.8-25.7-13z"/>
		<path class="s1" d="m80.3 100.5c-1-1-0.9-1 1.1-1h2.1l-1 1c-0.5 0.5-1.1 1-1.2 1 0 0-0.5-0.5-1-1z"/>
		<path class="s1" d="m120 80.8c0-1.1 0.2-1.3 1.8-1.3 1.6 0 1.6 0.1 0.8 0.9-1.6 1.6-2.6 1.8-2.6 0.4z"/>
	</g>
	<g>
		<path fill-rule="evenodd" class="s2" d="m74.3 97.4c-3.6-1.9-12.8-6.6-20.3-10.5-22.9-11.7-24.5-12.5-24.5-12.8 0-0.2 6.4-3.6 14.2-7.5 7.7-4 19.3-9.9 25.6-13.1 6.3-3.3 11.8-6 12.1-6 0.8 0 52.9 26 53 26.5 0.1 0.2-2.6 1.8-6 3.5-3.4 1.7-6.7 3.4-7.4 3.8-3.3 1.8-39.7 19.7-40 19.6-0.1 0-3.2-1.6-6.7-3.5zm29.3-12.2c12.1-6 21.9-11.1 21.9-11.2 0-0.2-7.1-3.8-15.6-8-8.6-4.2-18.6-9.1-22.2-10.9l-6.6-3.3-3.9 2c-2.2 1.1-11.6 5.9-20.9 10.7-9.4 4.7-17.3 8.9-17.6 9.2-0.5 0.4 4.7 3.3 21 11.7 11.9 6.1 21.7 11 21.8 11 0.2-0.1 10.1-5.1 22.1-11.2z"/>
	</g>
	<g style="opacity: .5">
	</g>
</svg>