<?xml version="1.0" encoding="utf-8"?>
<!DOCTYPE svg PUBLIC "-//W3C//DTD SVG 1.0//EN" "http://www.w3.org/TR/2001/REC-SVG-20010904/DTD/svg10.dtd">
<svg version="1.0" xmlns="http://www.w3.org/2000/svg" width="461px" height="213px" viewBox="0 0 461 213" preserveAspectRatio="xMidYMid meet">
 <g fill="none" stroke="#f5f5f5" stroke-width="0.5">
  <path d="M0 106.50 l0 -106.50 230.50 0 230.50 0 0 106.50 0 106.50 -230.50 0 -230.50 0 0 -106.50z m96.50 47.50 c0.55 -0.35 0.30 -0.50 -1 -0.50 -1.30 0 -1.55 0.15 -1 0.50 0.40 0.25 0.85 0.50 1 0.50 0.15 0 0.60 -0.25 1 -0.50z m237.35 -10.85 c-0.10 -0.80 -0.20 -0.25 -0.20 1.10 0 1.40 0.10 2 0.20 1.40 0.10 -0.65 0.10 -1.75 0 -2.50z m-237.60 -5.15 c0.80 -0.35 0.55 -0.45 -1 -0.45 -1.45 -0.05 -1.80 0.10 -1.25 0.45 0.85 0.55 0.95 0.55 2.25 0z m38.20 -50.30 c0.65 -0.60 -0.40 -0.50 -1.45 0.10 l-1.25 0.75 1.25 -0.35 c0.70 -0.15 1.35 -0.40 1.45 -0.50z m10.05 -5.75 c0 -0.20 -0.40 -0.45 -0.85 -0.60 -0.50 -0.10 -1.30 -0.40 -1.75 -0.60 -0.75 -0.30 -0.90 -0.10 -0.90 1.45 l0 1.80 1.75 -0.90 c0.95 -0.45 1.75 -1 1.75 -1.15z m-94 0.05 c0 -1.45 -0.10 -1.50 -1.10 -0.95 -1.65 0.85 -1.65 0.90 -0.60 1.70 1.40 1.05 1.70 0.90 1.70 -0.75z m45.90 -24.05 c-0.60 -0.35 -1.20 -0.35 -1.75 0 -0.75 0.45 -0.60 0.50 0.85 0.50 1.45 0 1.60 -0.05 0.90 -0.50z"/>
 </g>
 <g fill="#ffffff">
  <path d="M174.90 169.65 c-0.85 -0.20 -0.90 -3.65 -0.90 -63.65 l0 -63.40 1.25 -0.20 1.25 -0.25 0 63.90 c0 35.20 -0.15 63.90 -0.35 63.90 -0.25 -0.05 -0.80 -0.15 -1.25 -0.30z"/>
  <path d="M212.20 156 c-2.95 -0.65 -6.15 -3.55 -7.45 -6.60 -1.05 -2.55 -1 -9.40 0.05 -11.55 1.05 -2.10 3.55 -4.75 5.45 -5.70 2 -1.05 10 -1.50 12.40 -0.70 2 0.70 4.85 3.20 4.85 4.35 0 1.20 -2.25 0.80 -2.95 -0.50 -1.35 -2.45 -7.10 -3.70 -10.80 -2.30 -3.60 1.35 -6.75 6.25 -6.75 10.50 0 2.40 1.50 6.50 3.05 8.20 3.55 4.05 11.50 4.40 16.55 0.70 1.10 -0.80 1.80 -0.15 1.10 1 -1.05 1.70 -5.65 3.05 -9.95 3.05 -2.20 -0.05 -4.70 -0.20 -5.55 -0.45z"/>
  <path d="M236.25 155.80 c-4.50 -2 -6.50 -7.95 -4.20 -12.70 1.60 -3.25 4.30 -4.85 8.15 -4.85 3.60 0.05 5.70 1 7.65 3.60 1.25 1.60 1.40 2.25 1.40 5.40 0 3.10 -0.20 3.85 -1.40 5.70 -0.80 1.25 -2.15 2.45 -3.10 2.85 -2.15 0.90 -6.50 0.90 -8.50 0z m7.65 -1.45 c2 -1.65 2.95 -8.10 1.65 -11.45 -1.65 -4.40 -8.50 -4.50 -10.35 -0.15 -1 2.45 -0.85 7.05 0.30 9.60 0.70 1.60 1.35 2.20 2.60 2.60 1.85 0.55 4.80 0.25 5.80 -0.60z"/>
  <path d="M254.50 147.30 l0 -9.25 1.40 0.15 c0.90 0.10 1.40 0.50 1.50 1.20 0.15 1 0.20 1 1.95 -0.20 2.05 -1.35 4.35 -1.55 6.90 -0.50 2.75 1.15 3.25 2.75 3.25 10.80 l0 7 -1.50 0 -1.50 0 0 -6.95 c0 -6.25 -0.10 -7.05 -1.05 -8.25 -0.80 -1.05 -1.45 -1.30 -3.10 -1.30 -4.10 0.05 -4.85 1.55 -4.85 9.95 l0 6.55 -1.50 0 -1.50 0 0 -9.20z"/>
  <path d="M276.20 155.55 c-0.85 -0.55 -1.80 -1.65 -2.10 -2.50 -0.50 -1.45 -0.50 -1.55 0.70 -1.55 0.85 0 1.35 0.40 1.65 1.15 0.60 1.60 3.75 3.05 5.70 2.65 2.05 -0.40 2.85 -1.20 2.85 -2.70 0 -1.90 -1.30 -3 -4.55 -3.90 -3.25 -0.90 -5.25 -2.45 -5.75 -4.40 -1 -4.05 2.70 -7 7.65 -6.05 2.65 0.50 6.15 4.25 3.95 4.25 -0.40 0 -1.40 -0.65 -2.20 -1.50 -2.65 -2.60 -7.10 -1.65 -7.10 1.50 0 1.70 1.05 2.40 5.50 3.65 4.30 1.25 6.10 3.80 5 7.10 -0.75 2.35 -2.65 3.25 -6.60 3.25 -2.20 0 -3.60 -0.30 -4.70 -0.95z"/>
  <path d="M297.25 155.80 c-2.75 -1.20 -3 -1.90 -3.25 -9.25 l-0.25 -6.80 -1.35 0.15 c-1.15 0.15 -1.40 -0.05 -1.40 -0.90 0 -0.85 0.25 -1.05 1.40 -0.90 1.30 0.15 1.35 0.05 1.60 -2.60 0.15 -1.75 0.45 -2.75 0.90 -2.70 0.30 0.05 0.95 0.10 1.35 0.15 0.55 0.05 0.75 0.70 0.75 2.50 l0 2.50 2.15 0.15 c1.45 0.10 2.10 0.40 2.10 0.90 0 0.55 -0.65 0.80 -2.15 0.90 l-2.15 0.15 0.15 6.95 c0.15 8 0.50 8.80 3 7.35 1.40 -0.80 1.65 -0.80 2.35 -0.15 0.65 0.70 0.55 0.85 -1.10 1.55 -2.15 0.90 -2.20 0.90 -4.10 0.05z"/>
  <path d="M306.50 147.20 l0 -9.30 1.15 0.30 c0.60 0.15 1.25 0.30 1.50 0.30 0.20 0 0.35 0.45 0.35 1.05 0 1 0.05 1 1.55 -0.25 0.85 -0.70 1.95 -1.30 2.50 -1.30 1.40 0 2.95 0.90 2.95 1.75 0 1.05 -0.85 1.35 -2.05 0.75 -1.50 -0.85 -3.30 -0.20 -4.20 1.50 -0.55 1.10 -0.75 3.10 -0.75 8 l0 6.50 -1.50 0 -1.50 0 0 -9.30z"/>
  <path d="M323.15 156 c-2.45 -1 -2.90 -2.65 -2.90 -10.50 l0 -7.25 1.35 -0.05 1.30 -0.05 0.20 7.20 c0.15 7.20 0.15 7.25 1.55 8.45 1.80 1.55 3.90 1.55 5.70 0 1.40 -1.20 1.40 -1.30 1.65 -8.40 l0.25 -7.15 1.50 0 1.50 0.05 0 8.95 0 9 -1.40 0.15 c-1.10 0.15 -1.50 -0.05 -1.70 -0.85 l-0.25 -1.05 -1.40 1 c-1.50 1.05 -5.30 1.30 -7.35 0.50z"/>
  <path d="M345.25 155.80 c-5.45 -2.45 -6.85 -10.45 -2.60 -14.95 3.50 -3.75 11.05 -3.70 13.40 0.05 l1.05 1.60 -1.10 0 c-0.60 0 -1.90 -0.65 -2.85 -1.50 -4.50 -4 -10.30 0.60 -9.50 7.50 0.15 1.40 0.80 3.20 1.35 4 1.80 2.50 5.95 3.05 9.60 1.20 1.10 -0.60 1.35 -0.55 1.60 0.10 0.75 2 -7.50 3.50 -10.95 2z"/>
  <path d="M365.25 155.80 c-2.75 -1.20 -3 -1.85 -3.15 -9.15 l-0.20 -6.65 -1.45 0 c-1.10 0 -1.45 -0.25 -1.45 -1 0 -0.75 0.35 -1 1.45 -1 1.45 0 1.50 -0.10 1.65 -2.60 0.15 -2.50 0.20 -2.65 1.55 -2.65 1.30 -0.05 1.35 0.05 1.35 2.60 l0 2.65 1.90 0 c2 0 3.55 0.70 2.95 1.30 -0.20 0.20 -1.30 0.50 -2.50 0.65 l-2.10 0.30 -0.15 5.60 c-0.05 3.10 0.05 6.35 0.30 7.25 0.50 1.90 1.75 2.35 3.05 1.20 0.90 -0.80 2.55 -0.65 2.55 0.25 0 0.50 -2.70 1.95 -3.60 1.95 -0.35 -0.05 -1.35 -0.35 -2.15 -0.70z"/>
  <path d="M375.60 147.40 l0.15 -9.15 1.40 -0.15 1.35 -0.15 0 9.25 0 9.30 -1.50 0 -1.50 0 0.10 -9.10z"/>
  <path d="M389.75 155.80 c-4.85 -2.10 -6.70 -9.10 -3.60 -13.75 3.45 -5.20 11.35 -5.30 15.20 -0.20 1.25 1.60 1.40 2.25 1.40 5.45 0 3.20 -0.15 3.85 -1.50 5.75 -0.90 1.30 -2.20 2.35 -3.25 2.75 -2.30 0.80 -6.35 0.85 -8.25 0z m6.50 -1 c2.60 -1.10 3.40 -3.10 3.15 -8.10 -0.15 -3.70 -0.30 -4.30 -1.45 -5.50 -1.70 -1.65 -4.70 -2.10 -6.90 -0.95 -2.05 1.05 -3.05 3.35 -3.05 6.95 0 6.50 3.40 9.60 8.25 7.60z"/>
  <path d="M408.10 147.40 l0.15 -9.15 1.25 0 c0.90 0 1.30 0.30 1.40 1.10 l0.15 1.10 1.80 -1.25 c2.05 -1.40 4.35 -1.55 6.95 -0.45 2.65 1.10 3.20 2.95 3.20 11 l0 6.75 -1.50 0 -1.50 0 0 -7 c0 -6.80 -0.05 -7.10 -1.25 -8.25 -1.85 -1.90 -4.75 -1.75 -6.45 0.30 -1.25 1.50 -1.30 1.75 -1.30 8.25 l0 6.70 -1.50 0 -1.50 0 0.10 -9.10z"/>
  <path d="M375.50 133.50 c-0.45 -0.80 -0.40 -1.25 0.05 -1.80 0.80 -0.95 2.90 -0.90 3.30 0.10 0.80 2.05 -2.30 3.65 -3.35 1.70z"/>
  <path d="M238.40 118.50 c-4 -1.20 -6.45 -4.15 -6.80 -8.20 -0.55 -6.75 5.20 -11.60 11.70 -9.85 5.70 1.55 8.35 7.80 5.65 13.40 -1.20 2.45 -2.80 3.70 -5.75 4.55 -2.30 0.65 -2.90 0.70 -4.80 0.10z m4.90 -1.75 c2.25 -0.95 3.20 -3.20 3.20 -7.60 0 -6.30 -3.80 -9.35 -8.55 -6.85 -2 1 -2.85 3.20 -2.90 7.15 0 4.15 0.95 6.35 3.05 7.30 2.10 0.90 3.05 0.90 5.20 0z"/>
  <path d="M258.90 118.45 c-3.45 -1 -3.65 -1.55 -3.65 -10.40 l0 -7.80 1.25 0 1.25 0 0.25 7.30 c0.20 6.30 0.40 7.50 1.20 8.40 1.70 1.85 6 1.05 7.10 -1.35 0.20 -0.45 0.50 -3.90 0.65 -7.60 l0.30 -6.75 1.25 0 1.25 0 0.15 9.15 0.10 9.10 -1.50 0 c-1.15 0 -1.50 -0.20 -1.50 -1 0 -1.25 -0.20 -1.25 -1.90 0 -1.70 1.25 -3.85 1.55 -6.20 0.95z"/>
  <path d="M278.75 118.65 c-1.95 -0.50 -4.25 -2.65 -4.25 -3.95 0 -1.65 1.65 -1.60 2.40 0.10 1.20 2.60 6.90 3.40 8.10 1.15 1.35 -2.45 0.20 -3.90 -4.20 -5.25 -3.90 -1.20 -5.80 -3 -5.80 -5.45 0 -1 0.25 -2.25 0.50 -2.80 1.25 -2.25 6.10 -3.20 9 -1.70 1.35 0.70 3 2.55 3 3.35 0 0.90 -1.80 0.30 -2.75 -0.85 -2.20 -2.80 -7.25 -1.90 -7.25 1.25 0 1.70 0.60 2.10 5.15 3.60 4.90 1.60 6.30 3.40 5.35 6.95 -0.40 1.35 -1 2.15 -2.05 2.70 -1.60 0.85 -5.60 1.35 -7.20 0.90z"/>
  <path d="M298.25 118.25 c-3 -0.85 -4.45 -2.35 -5.50 -5.85 -0.90 -3.05 -0.90 -3.55 -0.25 -6 1.65 -5.90 9.25 -8.30 13.75 -4.35 1.75 1.55 2.60 3.40 2.85 6.40 l0.15 1.65 -6.25 -0.05 c-3.45 -0.05 -6.55 0.15 -6.95 0.40 -0.85 0.55 -0.35 3.05 1 4.75 1.15 1.50 4.40 2.50 6.50 2.05 0.80 -0.20 2.10 -0.90 2.90 -1.55 1.20 -1 1.50 -1.10 2.05 -0.50 0.70 0.90 -0.85 2.05 -4.30 3.10 -2.75 0.80 -2.70 0.80 -5.95 -0.05z m7.75 -10.90 c0 -3.20 -2.50 -5.85 -5.50 -5.85 -2.15 0 -3.75 1.45 -4.50 4.05 -1.05 3.60 -1.10 3.55 4.75 3.40 l5.25 -0.20 0 -1.40z"/>
  <path d="M204 118.25 c0 -0.15 0 -5.80 -0.05 -12.60 l0 -12.40 1.55 -0.15 1.50 -0.15 0 5.50 0 5.55 7.50 0 7.50 0 0 -5.55 0 -5.50 1.60 0.15 1.65 0.15 0 12.60 0 12.65 -1.60 0 -1.65 0 0 -6.25 0 -6.25 -7.50 0 -7.50 0 0 6.25 0 6.25 -1.50 0 c-0.80 0 -1.50 -0.10 -1.50 -0.25z"/>
  <path d="M239.75 80.30 c-4.05 -1.75 -4.55 -7.85 -0.90 -10.50 2.05 -1.50 5.70 -1.65 7.95 -0.35 l1.85 1.10 -0.25 -2.55 c-0.35 -3.35 -1.40 -4.50 -4.25 -4.50 -1.85 0 -2.45 0.25 -3.70 1.60 -1.35 1.50 -1.50 1.55 -2.30 0.80 -1 -1.05 -0.40 -1.90 2.05 -3.10 1.95 -0.90 4.75 -1 7.40 -0.25 3.05 0.80 3.60 2.40 3.80 10.85 l0.20 7.10 -1.55 0 c-1.10 0 -1.55 -0.25 -1.55 -0.80 0 -0.60 -0.20 -0.70 -0.60 -0.35 -0.85 0.60 -4.50 1.65 -5.70 1.65 -0.55 -0.05 -1.65 -0.35 -2.45 -0.70z m6.25 -1.55 c2.95 -1.50 3.40 -4.90 1.05 -7.30 -4.40 -4.35 -10.25 1.75 -6.25 6.50 1.45 1.75 2.95 1.95 5.20 0.80z"/>
  <path d="M293.25 80.25 c-3 -0.85 -4.45 -2.45 -5.55 -6.15 -1.45 -4.95 0.65 -9.70 5.05 -11.35 4.05 -1.55 8.60 0.05 10.45 3.70 0.40 0.70 0.75 2.30 0.85 3.55 l0.20 2.20 -6.25 -0.10 c-3.45 -0.05 -6.55 0.10 -6.95 0.35 -0.60 0.40 -0.60 0.80 0.15 2.80 1.80 4.65 6.75 5.70 10.55 2.20 0.75 -0.65 1.25 -0.75 1.75 -0.40 0.65 0.40 0.55 0.60 -0.40 1.45 -1.15 0.95 -5.65 2.55 -6.80 2.45 -0.30 0 -1.65 -0.35 -3.05 -0.70z m5.90 -9.55 c1.55 -0.30 1.85 -0.55 1.85 -1.55 0 -0.65 -0.35 -1.85 -0.75 -2.65 -2.25 -4.35 -7.90 -3.85 -9.25 0.90 -0.80 2.90 -0.70 3.05 1.90 3.25 1.30 0.10 2.80 0.20 3.35 0.25 0.55 0.05 1.85 -0.05 2.90 -0.20z"/>
  <path d="M203.95 80.30 c-0.10 -0.10 -0.15 -5.75 -0.05 -12.50 l0.15 -12.30 8 0 c7.20 0 8 0.10 7.85 0.85 -0.15 0.70 -0.90 0.80 -6.50 0.70 l-6.40 -0.10 0 4.65 0 4.65 5.50 -0.05 c5 0 5.50 0.05 5.50 0.90 0 0.80 -0.50 0.90 -5.50 0.90 l-5.50 0 0 6.25 0 6.25 -1.40 0 c-0.80 0 -1.55 -0.10 -1.65 -0.20z"/>
  <path d="M224 71.50 l0 -9 1.50 0 c1.25 0 1.50 0.20 1.50 1.20 l0 1.20 1.45 -1.45 c1.55 -1.50 2.95 -1.80 4.60 -0.95 1.05 0.60 1.20 1.35 0.45 2.50 -0.35 0.60 -0.60 0.60 -1.45 -0.20 -0.90 -0.80 -1.20 -0.85 -2.60 -0.30 -0.85 0.35 -1.75 1.20 -2 1.85 -0.25 0.65 -0.45 4.15 -0.45 7.70 l0 6.45 -1.50 0 -1.50 0 0 -9z"/>
  <path d="M257.10 71.65 l0.15 -8.90 1.65 -0.15 c1.50 -0.15 1.65 -0.05 1.35 0.85 -0.40 1.40 0.05 1.30 1.90 -0.25 1.35 -1.15 1.90 -1.25 4.05 -1.05 1.95 0.15 2.75 0.55 3.70 1.65 1.05 1.20 1.30 1.30 1.80 0.65 1.75 -2.30 4.55 -3 7.80 -1.90 2.50 0.90 3 2.75 3 10.95 l0 7 -1.50 0 -1.50 0 0 -6.80 c0 -8.20 -0.55 -9.65 -3.60 -9.70 -3.70 0 -4.40 1.55 -4.40 10 l0 6.50 -1.50 0 -1.50 0 0 -6.15 c0 -6.25 -0.50 -9.20 -1.60 -9.95 -1.35 -0.80 -3.95 -0.40 -5.15 0.85 -1.35 1.30 -1.35 1.40 -1.45 10 l-0.10 5 -1.60 0.15 -1.60 0.15 0.10 -8.90z"/>
 </g>
 <g fill="#ffffff">
  <path d="M69.75 143.95 c-14 -7.10 -25.90 -12.90 -26.35 -12.95 -1.30 0 -1.10 -0.85 0.25 -1.15 0.60 -0.15 1.80 -0.55 2.60 -0.85 1.50 -0.60 2.40 -0.20 25.05 11.20 12.95 6.50 23.75 11.80 24.05 11.80 0.30 0 11.50 -5.40 24.90 -12 l24.35 -12 1.95 1 c1.80 0.95 2.60 2 1.50 2 -0.25 0 -11.15 5.30 -24.25 11.75 -13.10 6.45 -23.95 11.75 -24.05 11.75 -0.15 0 -1.15 0.55 -2.25 1.25 -1.10 0.70 -2.05 1.20 -2.10 1.15 -0.10 0 -11.60 -5.85 -25.65 -12.95z"/>
  <path d="M89 137.70 c-2.90 -1.55 -14.45 -7.40 -25.70 -13.05 l-20.45 -10.25 2.40 -1.05 2.40 -1.05 23.60 11.85 c13 6.50 23.85 11.85 24.15 11.85 0.30 0 4.65 -2.05 9.70 -4.55 5 -2.55 16 -7.90 24.30 -12 l15.20 -7.45 1.95 1 c1.75 0.95 2.60 2 1.50 2 -0.20 0 -10.85 5.15 -23.60 11.45 -25.10 12.40 -28.65 14.05 -29.60 14.05 -0.35 0 -2.95 -1.25 -5.85 -2.80z"/>
  <path d="M69.75 112 c-14 -7.15 -25.90 -13 -26.35 -13 -1.30 0 -1.10 -0.85 0.25 -1.15 0.60 -0.15 1.80 -0.55 2.65 -0.90 1.50 -0.60 2 -0.35 14.25 5.90 7 3.60 17.70 9.05 23.75 12.10 l11.10 5.55 23.90 -11.80 c13.20 -6.50 24.50 -11.80 25.20 -11.80 1.50 0 5 1.20 5 1.70 0 0.25 -0.30 0.40 -0.70 0.40 -0.65 0 -44.05 21.15 -50.05 24.40 -1.60 0.90 -3.05 1.60 -3.20 1.60 -0.15 -0.05 -11.75 -5.85 -25.80 -13z"/>
  <path d="M94.25 108.50 c-0.90 -1 -0.85 -1 1.15 -1 l2.10 0 -1 1 c-0.55 0.55 -1.10 1 -1.15 1 -0.10 0 -0.60 -0.45 -1.10 -1z"/>
  <path d="M134 88.75 c0 -1.10 0.20 -1.25 1.75 -1.25 1.70 0 1.70 0.05 0.85 0.90 -1.60 1.60 -2.60 1.75 -2.60 0.35z"/>
 </g>
 <g fill="#ffd700">
  <path d="M88.25 105.40 c-3.55 -1.90 -12.70 -6.60 -20.25 -10.50 -22.90 -11.70 -24.50 -12.55 -24.50 -12.85 0 -0.15 6.35 -3.55 14.15 -7.50 7.75 -3.95 19.30 -9.85 25.65 -13.10 6.35 -3.30 11.80 -5.95 12.10 -5.95 0.85 0 52.85 26 53 26.50 0.10 0.25 -2.60 1.85 -6 3.55 -3.40 1.70 -6.70 3.40 -7.40 3.75 -3.25 1.80 -39.65 19.70 -39.95 19.65 -0.15 -0.05 -3.20 -1.65 -6.80 -3.55z m29.35 -12.15 c12.05 -6.05 21.90 -11.10 21.90 -11.25 0 -0.15 -7.05 -3.75 -15.60 -7.95 -8.60 -4.25 -18.60 -9.15 -22.20 -10.95 l-6.60 -3.25 -3.90 2 c-2.20 1.10 -11.60 5.90 -20.95 10.65 -9.35 4.75 -17.25 8.90 -17.60 9.20 -0.45 0.40 4.70 3.30 21 11.65 11.90 6.15 21.70 11.10 21.85 11 0.15 -0.05 10.10 -5.05 22.10 -11.10z"/>
 </g>
<g opacity="0.5" transform="rotate(-45, 230.5, 106.5)">
  <text x="50%" y="50%" font-size="20" text-anchor="middle" fill="lightgray" dominant-baseline="middle">
    generated by vectorizer.io
  </text>
</g>
</svg>